# File created by Blade
# Date/Time:  Wed Apr 08 17:39:35 2015
# Frame Rate: 120.000 fps
#------------------------------------------------------
:FULLY-SPECIFIED
:DEGREES
2223
root 9.879296 36.450346 2.570947 142.961572 -80.768856 -482.496863
Spine -16.164194 -1.837684 -2.668926
Head 38.944864 -2.218401 18.814600
LeftShoulder -8.201488 21.338261 15.907136
LeftArm 18.929413 16.943166 -72.804312
LeftForeArm 18.341552 -0.000000 22.570359
LeftHand -12.688766 -0.000000 -12.567408
LeftHandThumb1 -26.253704 0.000000 33.147579
RightShoulder -38.861089 -49.472323 23.885668
RightArm 55.370780 -19.519215 50.747803
RightForeArm 14.154345 -0.000000 21.315188
RightHand -0.918642 0.000000 28.958988
RightHandThumb1 -24.326973 -0.000000 -32.862282
LeftUpLeg -29.701374 16.513018 -5.902553
LeftLeg 19.436931 -0.000000 -0.000000
LeftFoot -13.976677 16.117609 -0.587039
LeftToeBase 3.441233 -0.000000 -0.000000
RightUpLeg -79.661458 -12.402447 10.951430
RightLeg 83.638439 -0.000000 -0.000000
RightFoot 10.948823 -5.458570 30.666647
RightToeBase -0.325676 -0.000000 0.000000
2224
root 9.897579 36.442424 2.581364 144.882520 -80.632092 -484.417610
Spine -16.027397 -1.795423 -2.696407
Head 38.978245 -2.018663 18.802568
LeftShoulder -8.170651 21.332185 15.924799
LeftArm 18.884422 16.658149 -72.889824
LeftForeArm 18.325044 0.000000 21.703154
LeftHand -12.840964 -0.000000 -12.422386
LeftHandThumb1 -26.253704 0.000000 33.147579
RightShoulder -38.900792 -49.456529 23.909201
RightArm 55.316211 -19.421015 51.095202
RightForeArm 14.767620 -0.000000 21.473110
RightHand -0.432321 -0.000000 27.852055
RightHandThumb1 -24.326973 -0.000000 -32.862282
LeftUpLeg -29.801029 16.667649 -6.057896
LeftLeg 19.550965 -0.000000 -0.000000
LeftFoot -14.003382 16.238016 -0.613171
LeftToeBase 3.418051 -0.000000 -0.000000
RightUpLeg -79.853073 -12.420395 12.046996
RightLeg 83.171332 -0.000000 -0.000000
RightFoot 9.808237 -5.477941 30.353096
RightToeBase -1.209073 -0.000000 0.000000
2225
root 9.918975 36.435860 2.595047 147.323568 -80.464373 -486.833641
Spine -15.926800 -1.713154 -2.804479
Head 39.008792 -1.809261 18.829406
LeftShoulder -8.068243 21.279044 16.008359
LeftArm 18.711543 16.166885 -73.104840
LeftForeArm 18.379303 -0.000000 20.865263
LeftHand -12.971938 0.000000 -12.361466
LeftHandThumb1 -26.253704 0.000000 33.147579
RightShoulder -38.957425 -49.463272 23.981596
RightArm 55.294119 -19.348014 51.347576
RightForeArm 15.260238 -0.000000 21.677313
RightHand 0.026146 -0.000000 26.670381
RightHandThumb1 -24.326973 -0.000000 -32.862282
LeftUpLeg -29.914871 16.883846 -6.285580
LeftLeg 19.619977 -0.000000 -0.000000
LeftFoot -13.980120 16.365564 -0.543718
LeftToeBase 3.434129 -0.000000 -0.000000
RightUpLeg -80.049385 -12.310906 12.964388
RightLeg 82.622313 -0.000000 -0.000000
RightFoot 8.917897 -5.453992 30.004715
RightToeBase -2.337341 -0.000000 0.000000
2226
root 9.938815 36.431292 2.599813 148.831839 -80.322854 -488.341061
Spine -15.783771 -1.766985 -2.799219
Head 39.070477 -1.574414 18.858240
LeftShoulder -8.020781 21.255101 16.047270
LeftArm 18.584513 15.851757 -73.214784
LeftForeArm 18.309145 -0.000000 20.104716
LeftHand -13.097145 -0.000000 -12.266915
LeftHandThumb1 -26.253704 0.000000 33.147579
RightShoulder -39.005691 -49.478021 24.066037
RightArm 55.279163 -19.282322 51.519318
RightForeArm 15.628689 -0.000000 21.940077
RightHand 0.340100 -0.000000 25.450491
RightHandThumb1 -24.326973 -0.000000 -32.862282
LeftUpLeg -29.999561 17.054211 -6.414311
LeftLeg 19.685049 -0.000000 -0.000000
LeftFoot -13.998645 16.419581 -0.590605
LeftToeBase 3.415157 -0.000000 -0.000000
RightUpLeg -80.180495 -12.273049 13.899194
RightLeg 82.004281 -0.000000 -0.000000
RightFoot 8.179655 -5.477353 29.779544
RightToeBase -3.387864 -0.000000 0.000000
2227
root 9.963684 36.425217 2.609788 150.729462 -80.157348 -490.225108
Spine -15.655232 -1.777976 -2.846589
Head 39.136460 -1.312379 18.896904
LeftShoulder -7.986139 21.256651 16.089587
LeftArm 18.482952 15.602031 -73.295804
LeftForeArm 18.166179 0.000000 19.438470
LeftHand -13.221818 -0.000000 -12.117818
LeftHandThumb1 -26.253704 0.000000 33.147579
RightShoulder -39.023763 -49.489336 24.108769
RightArm 55.227818 -19.207538 51.775707
RightForeArm 15.735685 -0.000000 22.182293
RightHand 0.735641 -0.000000 24.160572
RightHandThumb1 -24.326973 -0.000000 -32.862282
LeftUpLeg -30.095283 17.268815 -6.605928
LeftLeg 19.726638 -0.000000 -0.000000
LeftFoot -14.005079 16.484085 -0.628684
LeftToeBase 3.299371 -0.000000 -0.000000
RightUpLeg -80.329898 -12.153516 14.682917
RightLeg 81.321633 -0.000000 -0.000000
RightFoot 7.641867 -5.621597 29.744097
RightToeBase -4.410070 -0.000000 0.000000
2228
root 9.989633 36.416988 2.624973 152.652861 -80.008951 -492.138847
Spine -15.515231 -1.826635 -2.896526
Head 39.181239 -1.019923 18.917978
LeftShoulder -7.959099 21.249960 16.112291
LeftArm 18.343779 15.367137 -73.375507
LeftForeArm 18.021895 -0.000000 18.872068
LeftHand -13.325267 0.000000 -12.036146
LeftHandThumb1 -26.253704 0.000000 33.147579
RightShoulder -39.026213 -49.470903 24.099074
RightArm 55.182940 -19.207781 51.949717
RightForeArm 15.703350 -0.000000 22.435762
RightHand 1.129092 -0.000000 22.675875
RightHandThumb1 -24.326973 -0.000000 -32.862282
LeftUpLeg -30.163441 17.437009 -6.820627
LeftLeg 19.739121 -0.000000 -0.000000
LeftFoot -14.016330 16.514245 -0.695599
LeftToeBase 3.367368 -0.000000 -0.000000
RightUpLeg -80.476187 -12.015427 15.312857
RightLeg 80.617366 -0.000000 -0.000000
RightFoot 7.243207 -5.783892 29.666582
RightToeBase -5.301232 -0.000000 0.000000
2229
root 10.015166 36.407299 2.638266 154.374405 -79.873904 -493.873972
Spine -15.354093 -1.929334 -2.928322
Head 39.267290 -0.710049 18.915169
LeftShoulder -7.939473 21.250690 16.118991
LeftArm 18.215678 15.207968 -73.391636
LeftForeArm 17.798219 -0.000000 18.355573
LeftHand -13.347197 0.000000 -11.974170
LeftHandThumb1 -26.253704 0.000000 33.147579
RightShoulder -39.033591 -49.503531 24.099072
RightArm 55.179584 -19.196648 52.117194
RightForeArm 15.551213 -0.000000 22.680474
RightHand 1.557739 -0.000000 21.156430
RightHandThumb1 -24.326973 -0.000000 -32.862282
LeftUpLeg -30.206330 17.644473 -7.041811
LeftLeg 19.732599 -0.000000 -0.000000
LeftFoot -14.040684 16.522472 -0.722590
LeftToeBase 3.378317 -0.000000 -0.000000
RightUpLeg -80.588009 -11.881891 15.847695
RightLeg 79.879168 -0.000000 -0.000000
RightFoot 6.837171 -5.968230 29.525470
RightToeBase -6.075683 -0.000000 0.000000
2230
root 10.038368 36.396245 2.650911 155.748923 -79.752951 -495.293179
Spine -15.147579 -2.063545 -2.922224
Head 39.341764 -0.417553 18.904144
LeftShoulder -7.949146 21.259464 16.104041
LeftArm 18.128553 15.071864 -73.393021
LeftForeArm 17.619599 -0.000000 17.910626
LeftHand -13.423044 -0.000000 -11.957614
LeftHandThumb1 -26.253704 0.000000 33.147579
RightShoulder -39.117059 -49.531412 24.193041
RightArm 55.190244 -19.225533 52.082383
RightForeArm 15.318750 -0.000000 23.071224
RightHand 1.822972 -0.000000 19.234558
RightHandThumb1 -24.326973 -0.000000 -32.862282
LeftUpLeg -30.220290 17.857601 -7.233237
LeftLeg 19.738603 -0.000000 -0.000000
LeftFoot -14.086830 16.481371 -0.762187
LeftToeBase 3.390727 -0.000000 -0.000000
RightUpLeg -80.654595 -11.752001 16.304994
RightLeg 79.130905 -0.000000 -0.000000
RightFoot 6.406853 -6.157010 29.098328
RightToeBase -6.514358 -0.000000 0.000000
2231
root 10.058149 36.381057 2.658357 156.603393 -79.678130 -496.414970
Spine -14.656230 -2.280632 -2.897328
Head 39.387449 -0.093639 18.900339
LeftShoulder -7.932496 21.210493 16.072806
LeftArm 17.987262 14.892185 -73.391373
LeftForeArm 17.548520 -0.000000 17.577209
LeftHand -13.431962 -0.000000 -12.083224
LeftHandThumb1 -26.253704 0.000000 33.147579
RightShoulder -39.047851 -49.555584 24.177106
RightArm 55.178939 -19.161908 52.240968
RightForeArm 14.809495 -0.000000 23.336891
RightHand 2.222734 -0.000000 17.684476
RightHandThumb1 -24.326973 -0.000000 -32.862282
LeftUpLeg -30.016732 18.039435 -7.318489
LeftLeg 19.800843 -0.000000 -0.000000
LeftFoot -14.170080 16.449506 -0.781634
LeftToeBase 3.431108 -0.000000 -0.000000
RightUpLeg -80.509338 -11.725254 16.665108
RightLeg 78.423019 -0.000000 -0.000000
RightFoot 5.676069 -6.338258 28.740597
RightToeBase -6.473353 -0.000000 0.000000
2232
root 10.083566 36.369580 2.663761 157.329225 -79.585908 -497.227903
Spine -14.385940 -2.514225 -2.789022
Head 39.479843 0.239918 18.827575
LeftShoulder -7.966499 21.246077 15.995903
LeftArm 17.942843 14.807145 -73.324422
LeftForeArm 17.380686 -0.000000 17.256949
LeftHand -13.450761 -0.000000 -12.076522
LeftHandThumb1 -26.253704 0.000000 33.147579
RightShoulder -39.022274 -49.597883 24.135596
RightArm 55.174140 -19.132520 52.422648
RightForeArm 14.334013 0.000000 23.545978
RightHand 2.539032 0.000000 16.131180
RightHandThumb1 -24.326973 -0.000000 -32.862282
LeftUpLeg -30.028105 18.152979 -7.389398
LeftLeg 19.905767 -0.000000 -0.000000
LeftFoot -14.243455 16.444539 -0.835642
LeftToeBase 3.444577 -0.000000 -0.000000
RightUpLeg -80.519939 -11.635116 17.070209
RightLeg 77.670008 -0.000000 -0.000000
RightFoot 4.706850 -6.624140 28.421525
RightToeBase -6.435923 -0.000000 0.000000
2233
root 10.094946 36.352540 2.672129 158.328196 -79.454400 -498.630942
Spine -13.756362 -2.644693 -2.814349
Head 39.526323 0.551932 18.810757
LeftShoulder -7.991953 21.263906 15.913571
LeftArm 17.962420 14.736406 -73.192167
LeftForeArm 17.337727 -0.000000 17.009271
LeftHand -13.393864 -0.000000 -12.238956
LeftHandThumb1 -26.253704 0.000000 33.147579
RightShoulder -38.901378 -49.592787 24.084654
RightArm 55.103953 -19.008968 52.690180
RightForeArm 13.474614 -0.000000 23.725759
RightHand 2.871106 -0.000000 15.371976
RightHandThumb1 -24.326973 -0.000000 -32.862282
LeftUpLeg -29.660681 18.371865 -7.450458
LeftLeg 19.949195 -0.000000 -0.000000
LeftFoot -14.337933 16.484303 -0.820031
LeftToeBase 3.471952 -0.000000 -0.000000
RightUpLeg -80.235548 -11.553876 17.201799
RightLeg 77.008186 -0.000000 -0.000000
RightFoot 3.646592 -6.884019 28.099160
RightToeBase -5.563214 -0.000000 0.000000
2234
root 10.108204 36.335762 2.678351 159.181642 -79.302491 -499.867747
Spine -13.149699 -2.733998 -2.811111
Head 39.567354 0.839161 18.761754
LeftShoulder -7.991717 21.260174 15.829186
LeftArm 17.981761 14.722012 -73.043980
LeftForeArm 17.295432 -0.000000 16.822030
LeftHand -13.337130 -0.000000 -12.312444
LeftHandThumb1 -26.253704 0.000000 33.147579
RightShoulder -38.874315 -49.583306 24.066911
RightArm 55.092964 -18.926781 52.923236
RightForeArm 12.640526 -0.000000 23.866868
RightHand 3.079615 0.000000 14.364716
RightHandThumb1 -24.326973 -0.000000 -32.862282
LeftUpLeg -29.327589 18.619820 -7.499979
LeftLeg 20.006069 -0.000000 -0.000000
LeftFoot -14.410432 16.501536 -0.751043
LeftToeBase 3.423182 -0.000000 -0.000000
RightUpLeg -79.966260 -11.440306 17.321632
RightLeg 76.323397 -0.000000 -0.000000
RightFoot 2.536567 -7.405287 27.759487
RightToeBase -6.396368 -0.000000 0.000000
